<?xml version="1.0" encoding="UTF-8"?>
<svg width="64px" height="64px" viewBox="0 0 64 64" version="1.1" xmlns="http://www.w3.org/2000/svg" xmlns:xlink="http://www.w3.org/1999/xlink">
    <!-- Generator: Sketch 52.6 (67491) - http://www.bohemiancoding.com/sketch -->
    <title>Infotech_logo</title>
    <desc>Created with Sketch.</desc>
    <defs>
        <polygon id="path-1" points="0.305734328 0.398307692 34.2822923 0.398307692 34.2822923 31.0890462 0.305734328 31.0890462"></polygon>
    </defs>
    <g id="Infotech_logo" stroke="none" stroke-width="1" fill="none" fill-rule="evenodd">
        <g id="Group-20" transform="translate(2.000000, 2.000000)">
            <path d="M42.1765385,29.4972462 C42.0934615,29.3772462 42.009,29.2567846 41.9231538,29.1363231 C41.8986923,29.1026308 41.8751538,29.0684769 41.8506923,29.0347846 L41.8451538,29.0698615 L41.8266923,29.0454 C41.8262308,29.0495538 41.8253077,29.0546308 41.8243846,29.0587846 C41.8142308,29.1169385 41.8036154,29.1760154 41.7925385,29.2369385 C41.7814615,29.2992462 41.7699231,29.3629385 41.7579231,29.4280154 C41.7556154,29.4404769 41.7533077,29.4529385 41.751,29.4654 C41.7265385,29.5974 41.7006923,29.7354 41.6739231,29.8761692 C41.6683846,29.9043231 41.6628462,29.9320154 41.6573077,29.9606308 C41.6300769,30.1027846 41.601,30.2490923 41.571,30.3995538 C41.5640769,30.4318615 41.5576154,30.4646308 41.5511538,30.4974 C41.5193077,30.6543231 41.4860769,30.8144769 41.451,30.9792462 C41.4473077,30.9963231 41.4436154,31.0138615 41.4399231,31.0304769 C41.4048462,31.1966308 41.3683846,31.3660154 41.3296154,31.5390923 C41.3259231,31.5557077 41.3226923,31.5718615 41.319,31.5880154 C41.2793077,31.7652462 41.2377692,31.9466308 41.1953077,32.1307846 C41.1879231,32.1607846 41.181,32.1907846 41.1740769,32.2212462 C41.1311538,32.4044769 41.0863846,32.5904769 41.0402308,32.7792462 C41.0333077,32.8069385 41.0263846,32.8350923 41.0194615,32.8627846 C40.971,33.0603231 40.9206923,33.2601692 40.8685385,33.4637077 L40.8482308,33.5463231 C40.743,33.9497077 40.6336154,34.3461692 40.5214615,34.7389385 C40.5071538,34.7892462 40.4942308,34.8409385 40.4799231,34.8907846 C40.4683846,34.9300154 40.4563846,34.9674 40.4453077,35.0061692 C40.335,35.3850923 40.2223846,35.7598615 40.1056154,36.1281692 C40.0991538,36.1498615 40.0922308,36.1720154 40.0857692,36.1937077 C40.0705385,36.2412462 40.0543846,36.2869385 40.0391538,36.3340154 C39.9851538,36.5020154 39.9320769,36.6704769 39.8771538,36.8352462 C39.9246923,36.8154 39.9717692,36.7955538 40.0193077,36.7752462 C40.1522308,36.7189385 40.2837692,36.6626308 40.4134615,36.6063231 C40.4859231,36.5749385 40.5574615,36.5435538 40.6285385,36.5121692 C40.7494615,36.4590923 40.869,36.4060154 40.9862308,36.3529385 C41.0554615,36.3215538 41.1242308,36.2901692 41.1920769,36.2592462 C41.3139231,36.2034 41.4334615,36.1475538 41.5516154,36.0917077 C41.6093077,36.0644769 41.6674615,36.0372462 41.7242308,36.0104769 C41.8959231,35.9283231 42.0643846,35.8466308 42.2273077,35.7649385 C42.4737692,35.6417077 42.7156154,35.5110923 42.9551538,35.3763231 C43.0322308,35.3329385 43.1079231,35.2867846 43.1845385,35.2420154 C43.347,35.1474 43.5080769,35.0504769 43.6668462,34.9503231 C43.7526923,34.8967846 43.8371538,34.8414 43.9216154,34.7860154 C44.0716154,34.6877077 44.2197692,34.5866308 44.3660769,34.4837077 C44.4468462,34.4269385 44.5276154,34.3701692 44.6074615,34.3120154 C44.6448462,34.2847846 44.6808462,34.2552462 44.7182308,34.2275538 C44.6965385,34.1707846 44.6776154,34.1144769 44.6554615,34.0581692 C44.6148462,33.9543231 44.5723846,33.8504769 44.5299231,33.7470923 C44.457,33.5703231 44.3817692,33.3935538 44.3033077,33.2181692 C44.2576154,33.1157077 44.2119231,33.0132462 44.1643846,32.9112462 C44.0780769,32.7261692 43.9871538,32.5420154 43.8943846,32.3583231 C43.8505385,32.2710923 43.8085385,32.1834 43.7633077,32.0966308 C43.623,31.8289385 43.4780769,31.5630923 43.3253077,31.3000154 C43.2242308,31.1255538 43.119,30.9501692 43.0105385,30.7743231 C42.9759231,30.7180154 42.9399231,30.6612462 42.9048462,30.6049385 C42.8291538,30.4840154 42.753,30.3626308 42.6740769,30.2407846 C42.6316154,30.1752462 42.5882308,30.1092462 42.5448462,30.0437077 C42.4691538,29.9287846 42.3925385,29.8138615 42.3140769,29.6989385 C42.2688462,29.6315538 42.2231538,29.5646308 42.1765385,29.4972462 M43.9982308,36.8394 C43.9340769,36.8763231 43.8699231,36.9127846 43.8053077,36.9492462 C43.5491538,37.0927846 43.2906923,37.2330923 43.0271538,37.3646308 C42.8785385,37.4389385 42.7257692,37.5137077 42.5706923,37.5884769 C42.5226923,37.6115538 42.4728462,37.6341692 42.4248462,37.6577077 C42.3154615,37.7089385 42.2065385,37.7610923 42.0943846,37.8132462 C42.0343846,37.8409385 41.973,37.8686308 41.9120769,37.8963231 C41.8299231,37.9341692 41.7491538,37.9715538 41.6656154,38.0094 C41.6434615,38.0190923 41.6203846,38.0292462 41.5986923,38.0389385 C41.5322308,38.0684769 41.4648462,38.0980154 41.3974615,38.1280154 C41.2936154,38.1737077 41.1897692,38.2194 41.0840769,38.2650923 C41.013,38.2960154 40.9400769,38.3269385 40.8680769,38.3578615 C40.7633077,38.4026308 40.6580769,38.4474 40.5514615,38.4917077 C40.4762308,38.5235538 40.4000769,38.5549385 40.3239231,38.5863231 C40.2163846,38.6310923 40.1083846,38.6754 39.9985385,38.7197077 C39.9214615,38.7510923 39.8434615,38.7824769 39.7654615,38.8138615 C39.6533077,38.8586308 39.5397692,38.9038615 39.4253077,38.9490923 C39.3477692,38.9795538 39.2697692,39.0100154 39.1913077,39.0404769 C39.1460769,39.0580154 39.1017692,39.0760154 39.0560769,39.0935538 C39.0473077,39.1161692 39.0376154,39.1374 39.0288462,39.1600154 C38.8977692,39.4895538 38.7634615,39.8140154 38.6263846,40.1324769 C38.6042308,40.1846308 38.5811538,40.2367846 38.559,40.2884769 C38.4200769,40.6060154 38.2788462,40.9184769 38.1343846,41.2240154 C38.1126923,41.2687846 38.091,41.3130923 38.0697692,41.3578615 C37.9206923,41.6689385 37.7693077,41.9744769 37.6142308,42.2726308 C37.6096154,42.2814 37.605,42.2915538 37.6003846,42.3003231 C37.5897692,42.3206308 37.5786923,42.3390923 37.5685385,42.3594 C37.4051538,42.6704769 37.239,42.9760154 37.0696154,43.2718615 C36.9113077,43.5469385 36.7460769,43.8164769 36.5771538,44.0837077 C36.5323846,44.1543231 36.4866923,44.2249385 36.441,44.2955538 C36.2905385,44.5272462 36.1359231,44.7570923 35.9771538,44.9827846 C35.9526923,45.0174 35.9296154,45.0529385 35.9051538,45.0875538 C35.7556154,45.2970923 35.6028462,45.5043231 35.4468462,45.7078615 C38.5931538,46.6650923 41.967,46.6743231 45.303,45.7323231 C46.1748462,42.5454 46.1748462,39.2181692 45.3043846,36.0146308 C45.123,36.1406308 44.9388462,36.2638615 44.7523846,36.3834 C44.7477692,36.3861692 44.7436154,36.3889385 44.739,36.3917077 C44.4962308,36.5467846 44.2483846,36.6949385 43.9982308,36.8394 M19.2939231,53.7123231 C16.8182308,53.7123231 14.3457692,53.2604769 11.9891538,52.3775538 C17.1519231,59.0269385 26.1773077,61.4638615 33.9828462,58.3244769 C30.0971538,57.6501692 26.4666923,55.9101692 23.4948462,53.2724769 C22.1074615,53.5655538 20.7006923,53.7123231 19.2939231,53.7123231 M36.9136154,56.8378615 C32.7842308,56.6850923 28.8334615,55.2358615 25.6045385,52.7080154 C28.8837692,51.6395538 31.8191538,49.7560154 34.1956154,47.1884769 L34.2076154,47.1930923 L34.2168462,47.1824769 C36.1756154,47.8627846 38.2580769,48.2080154 40.3691538,48.2080154 C41.7865385,48.2080154 43.2159231,48.0510923 44.6282308,47.7427846 C43.1323846,51.4738615 40.443,54.6543231 36.9136154,56.8378615" id="Fill-1" fill="#3E61AC"></path>
            <path d="M35.9097231,41.6694 C35.9775692,41.5415538 36.0454154,41.4132462 36.1123385,41.2826308 C36.1478769,41.2134 36.1824923,41.1432462 36.2175692,41.0735538 C36.2789538,40.9512462 36.3403385,40.8275538 36.4008,40.7024769 C36.4368,40.6286308 36.4723385,40.5543231 36.5078769,40.4795538 C36.5674154,40.3535538 36.6264923,40.2266308 36.6851077,40.0987846 C36.7040308,40.0563231 36.7234154,40.0143231 36.7428,39.9718615 L36.2789538,40.1477077 L36.3020308,40.1098615 C36.2941846,40.1121692 36.2849538,40.1154 36.2771077,40.1181692 C36.1561846,40.1610923 36.0315692,40.2049385 35.9023385,40.2497077 C35.8894154,40.2543231 35.8769538,40.2584769 35.8635692,40.2630923 C35.7260308,40.3106308 35.5820308,40.3595538 35.4357231,40.4089385 C35.4029538,40.4195538 35.3706462,40.4306308 35.3374154,40.4417077 C35.1911077,40.4906308 35.0415692,40.5404769 34.8874154,40.5903231 C34.8560308,40.6009385 34.8237231,40.6110923 34.7918769,40.6212462 C34.6321846,40.6734 34.4692615,40.7255538 34.3021846,40.7781692 C34.2975692,40.7795538 34.2938769,40.7809385 34.2892615,40.7823231 C34.1189538,40.8358615 33.9435692,40.8898615 33.7658769,40.9438615 C33.7331077,40.9540154 33.7003385,40.9637077 33.6671077,40.9738615 C33.6066462,40.9918615 33.5461846,41.0103231 33.4848,41.0283231 C33.3703385,41.0629385 33.2544923,41.0970923 33.1372615,41.1312462 C33.1031077,41.1409385 33.0684923,41.1510923 33.0343385,41.1607846 C32.9706462,41.1792462 32.9078769,41.1981692 32.8432615,41.2161692 C32.7172615,41.2521692 32.5898769,41.2881692 32.4615692,41.3237077 C32.4200308,41.3384769 32.3780308,41.3500154 32.3355692,41.3597077 C31.9326462,41.4709385 31.5324923,41.5752462 31.1341846,41.6758615 C31.0464923,41.6980154 30.9588,41.7201692 30.8711077,41.7418615 C30.4848,41.8369385 30.1008,41.9278615 29.7200308,42.0123231 C29.6531077,42.0270923 29.5866462,42.0409385 29.5197231,42.0552462 C29.3461846,42.0930923 29.1726462,42.1314 29.0004923,42.1669385 C29.0374154,42.1946308 29.0734154,42.2218615 29.1098769,42.2490923 C29.2312615,42.3414 29.3521846,42.4318615 29.4717231,42.5204769 C29.5294154,42.5634 29.5871077,42.6054 29.6443385,42.6474 C29.7560308,42.7290923 29.8668,42.8094 29.9766462,42.8883231 C30.0343385,42.9298615 30.0924923,42.9714 30.1497231,43.0120154 C30.2628,43.0923231 30.3749538,43.1707846 30.4861846,43.2478615 C30.5351077,43.2820154 30.5849538,43.3170923 30.6338769,43.3507846 C30.7917231,43.4587846 30.9481846,43.5644769 31.1014154,43.6660154 C31.3331077,43.8192462 31.5689538,43.9646308 31.8061846,44.1049385 C31.8814154,44.1497077 31.9575692,44.1912462 32.0337231,44.2346308 C32.1989538,44.3287846 32.3651077,44.4210923 32.5331077,44.5097077 C32.6212615,44.5558615 32.7094154,44.6010923 32.7980308,44.6454 C32.9600308,44.7270923 33.1229538,44.8055538 33.2872615,44.8812462 C33.3744923,44.9218615 33.4612615,44.9624769 33.5489538,45.0012462 C33.5914154,45.0201692 33.6343385,45.0363231 33.6772615,45.0543231 C33.7160308,45.0063231 33.7561846,44.9601692 33.7949538,44.9117077 C33.8637231,44.8254 33.9315692,44.7377077 33.9989538,44.6500154 C34.1175692,44.4967846 34.2334154,44.3417077 34.3478769,44.1843231 C34.4129538,44.0943231 34.4784923,44.0038615 34.5426462,43.9124769 C34.6598769,43.7449385 34.7743385,43.5737077 34.8869538,43.4020154 C34.9404923,43.3203231 34.9954154,43.2395538 35.0480308,43.1569385 C35.2095692,42.9021692 35.3674154,42.6446308 35.5178769,42.3820154 C35.6194154,42.2057077 35.7191077,42.0252462 35.8178769,41.8424769 C35.8488,41.7852462 35.8792615,41.7270923 35.9097231,41.6694 M31.0603385,45.7392462 C30.9961846,45.7027846 30.9329538,45.6654 30.8697231,45.6275538 C30.6154154,45.4770923 30.3634154,45.3220154 30.1155692,45.1586308 C29.8649538,44.9929385 29.6078769,44.8166308 29.3461846,44.6338615 C29.3217231,44.6167846 29.2972615,44.6001692 29.2723385,44.5826308 C29.0226462,44.4067846 28.7669538,44.2221692 28.5080308,44.0320154 C28.4706462,44.0043231 28.4337231,43.9770923 28.3963385,43.9489385 C28.1415692,43.7606308 27.8826462,43.5644769 27.6200308,43.3618615 C27.5771077,43.3290923 27.5346462,43.2958615 27.4912615,43.2621692 C27.2286462,43.0586308 26.9628,42.8486308 26.6932615,42.6317077 C26.6743385,42.6164769 26.6558769,42.6021692 26.6364923,42.5864769 C26.4601846,42.6123231 26.2894154,42.6312462 26.1154154,42.6543231 C25.9349538,42.6783231 25.7535692,42.7041692 25.5754154,42.7249385 C25.3248,42.7544769 25.0797231,42.7780154 24.8337231,42.8015538 C24.6712615,42.8172462 24.5069538,42.8357077 24.3468,42.8486308 C24.0758769,42.8712462 23.8118769,42.8860154 23.5474154,42.9007846 C23.4191077,42.9081692 23.2871077,42.9187846 23.1601846,42.9243231 C22.7720308,42.9414 22.3908,42.9510923 22.0192615,42.9515538 L21.9758769,42.9515538 C21.6975692,42.9515538 21.4201846,42.9450923 21.1432615,42.9344769 C20.9928,42.9289385 20.8428,42.9210923 20.6923385,42.9123231 C20.5308,42.9030923 20.3697231,42.8910923 20.2086462,42.8781692 C20.0480308,42.8647846 19.8874154,42.8523231 19.7272615,42.8357077 C19.5186462,42.8140154 19.3104923,42.7909385 19.1032615,42.7632462 C19.8504923,45.9372462 21.5604923,48.9220154 24.0089538,51.3132462 C27.2051077,50.4750923 30.0855692,48.8121692 32.4237231,46.4564769 C32.2257231,46.3627846 32.0286462,46.2658615 31.8329538,46.1647846 C31.8324923,46.1647846 31.8320308,46.1643231 31.8311077,46.1638615 C31.5712615,46.0300154 31.3146462,45.8869385 31.0603385,45.7392462 M21.9288,51.7337077 C19.5038769,49.0697077 17.8580308,45.8347846 17.2072615,42.4309385 L17.1952615,42.4286308 L17.1934154,42.4180154 C13.7849538,41.6463231 10.6866462,40.0475538 8.11864615,37.7421692 C7.54403077,41.8060154 8.26541538,45.9529385 10.1988,49.6023231 C13.8541846,51.5657077 17.9512615,52.3037077 21.9288,51.7337077 M7.44572308,47.8120154 C4.22695385,45.2989385 1.91787692,41.8290923 0.842492308,37.8155538 C-0.2412,33.7729385 0.0366461538,29.5826308 1.59710769,25.7754 C2.24556923,29.6689385 3.95972308,33.2763231 6.57526154,36.1937077 C5.77541538,40.0937077 6.08556923,44.1127846 7.44572308,47.8120154" id="Fill-3" fill="#1D4697"></path>
            <g id="Group-7" transform="translate(13.384615, 0.063231)">
                <mask id="mask-2" fill="white">
                    <use xlink:href="#path-1"></use>
                </mask>
                <g id="Clip-6"></g>
                <path d="M2.26767692,23.2530462 C2.33136923,23.2161231 2.39552308,23.1796615 2.45967692,23.1436615 C2.71536923,23.0005846 2.97244615,22.8612 3.2346,22.7305846 C3.38321538,22.6562769 3.53552308,22.5819692 3.6906,22.5072 C3.74275385,22.4822769 3.79721538,22.4564308 3.85075385,22.4315077 C3.95552308,22.3816615 4.06029231,22.3318154 4.16783077,22.2819692 C4.23198462,22.2524308 4.29844615,22.2224308 4.36398462,22.1924308 C4.46229231,22.1476615 4.56013846,22.1028923 4.66075385,22.0581231 C4.73413846,22.0248923 4.80890769,21.9925846 4.88367692,21.9593538 C4.97967692,21.9168923 5.07613846,21.8748923 5.17398462,21.8324308 C5.25244615,21.7987385 5.33183077,21.7645846 5.41121538,21.7308923 C5.5086,21.6893538 5.60644615,21.6478154 5.70567692,21.6067385 C5.78736923,21.5721231 5.87044615,21.5379692 5.95352308,21.5038154 C6.05321538,21.4627385 6.15290769,21.4216615 6.25444615,21.3810462 C6.34029231,21.3459692 6.42752308,21.3108923 6.51475385,21.2762769 C6.56183077,21.2573538 6.60706154,21.2388923 6.65413846,21.2199692 C6.7086,21.1987385 6.76490769,21.1770462 6.81936923,21.1558154 C6.90936923,21.1202769 6.99890769,21.0852 7.08983077,21.0501231 C7.12952308,21.0348923 7.16783077,21.0196615 7.20752308,21.0039692 C7.21629231,20.9818154 7.22598462,20.9605846 7.23475385,20.9384308 C7.36536923,20.6084308 7.49967692,20.2835077 7.63721538,19.9645846 C7.65983077,19.9128923 7.68198462,19.8612 7.7046,19.8099692 C7.84306154,19.4924308 7.98429231,19.1804308 8.12921538,18.8748923 C8.15090769,18.8292 8.1726,18.7839692 8.19429231,18.7382769 C8.34290769,18.4285846 8.49383077,18.1239692 8.64844615,17.8272 C8.66413846,17.7962769 8.68075385,17.7662769 8.69690769,17.7358154 C8.85983077,17.4256615 9.02506154,17.1210462 9.19398462,16.8261231 C9.35183077,16.5515077 9.51752308,16.2819692 9.68598462,16.0152 C9.73075385,15.9441231 9.77644615,15.8739692 9.82213846,15.8033538 C9.9726,15.5712 10.1267538,15.3418154 10.2855231,15.1165846 C10.3099846,15.0815077 10.3335231,15.0459692 10.3584462,15.0113538 C10.5079846,14.8013538 10.6602923,14.5941231 10.8162923,14.3905846 C9.22767692,13.9073538 7.57998462,13.6650462 5.90875385,13.6650462 C4.27029231,13.6650462 2.60967692,13.8999692 0.957369231,14.3661231 C0.0878307692,17.5521231 0.0887538462,20.8779692 0.958753846,24.0805846 C1.14152308,23.9536615 1.3266,23.8295077 1.51444615,23.7090462 C1.52136923,23.7044308 1.52875385,23.7002769 1.53613846,23.6956615 C1.77613846,23.5415077 2.02075385,23.3956615 2.26767692,23.2530462 M4.58736923,30.2268923 C4.59106154,30.2084308 4.59429231,30.1904308 4.59798462,30.1715077 C4.62567692,30.0265846 4.65521538,29.8765846 4.6866,29.7224308 C4.69121538,29.6965846 4.69675385,29.6716615 4.70183077,29.6458154 C4.73367692,29.4884308 4.76690769,29.3273538 4.80198462,29.1607385 C4.80521538,29.1459692 4.80844615,29.1298154 4.81167692,29.1145846 C4.84629231,28.9512 4.88275385,28.7836615 4.9206,28.6124308 C4.92429231,28.5962769 4.92752308,28.5801231 4.93121538,28.5635077 C4.96952308,28.3904308 5.01013846,28.2132 5.05213846,28.0327385 C5.05952308,28.0008923 5.06690769,27.9685846 5.07475385,27.9362769 C5.11629231,27.7572 5.15967692,27.5753538 5.20490769,27.3902769 C5.21229231,27.3602769 5.21967692,27.3302769 5.22706154,27.3002769 C5.24413846,27.2301231 5.26121538,27.1604308 5.27875385,27.0898154 C5.31013846,26.9642769 5.34244615,26.8373538 5.37521538,26.7095077 C5.48183077,26.2941231 5.59352308,25.8856615 5.70752308,25.4799692 C5.73244615,25.3908923 5.75783077,25.3018154 5.78321538,25.2132 C5.78413846,25.2099692 5.78506154,25.2072 5.78598462,25.2044308 C5.89998462,24.8079692 6.01675385,24.4156615 6.13767692,24.0302769 C6.14321538,24.0122769 6.14875385,23.9938154 6.15475385,23.9758154 C6.16583077,23.9402769 6.17783077,23.9070462 6.18936923,23.8715077 C6.25444615,23.6665846 6.31952308,23.4616615 6.38644615,23.2604308 C6.33429231,23.2821231 6.28306154,23.3042769 6.23090769,23.3259692 C6.10398462,23.3799692 5.97752308,23.4335077 5.85336923,23.4875077 C5.7786,23.5198154 5.70521538,23.5516615 5.63229231,23.5839692 C5.51229231,23.6370462 5.39367692,23.6896615 5.27690769,23.7422769 C5.2086,23.7732 5.13983077,23.8041231 5.07244615,23.8350462 C4.94736923,23.8922769 4.82506154,23.9495077 4.70367692,24.0067385 C4.64921538,24.0321231 4.59383077,24.0579692 4.54029231,24.0833538 C4.36721538,24.1659692 4.19783077,24.2485846 4.03352308,24.3307385 C3.78844615,24.4530462 3.54752308,24.5827385 3.30890769,24.7170462 C3.23275385,24.7599692 3.15844615,24.8052 3.08321538,24.8490462 C2.92029231,24.9445846 2.75783077,25.0415077 2.59813846,25.1425846 C2.51413846,25.1956615 2.43013846,25.2505846 2.3466,25.3050462 C2.19567692,25.4047385 2.04613846,25.5067385 1.89798462,25.6110462 C1.81813846,25.6668923 1.73829231,25.7232 1.65936923,25.7808923 C1.6206,25.8090462 1.58367692,25.8395077 1.54490769,25.8681231 C1.5666,25.9253538 1.58644615,25.9830462 1.60906154,26.0407385 C1.64875385,26.1418154 1.69029231,26.2433538 1.73136923,26.3444308 C1.80521538,26.5235077 1.88229231,26.7025846 1.96121538,26.8807385 C2.00644615,26.9818154 2.05121538,27.0824308 2.09783077,27.1825846 C2.18506154,27.3699692 2.27690769,27.5564308 2.3706,27.7419692 C2.41352308,27.8278154 2.45552308,27.9141231 2.49983077,27.9995077 C2.64013846,28.2681231 2.78552308,28.5348923 2.93829231,28.7988923 C3.03936923,28.9733538 3.1446,29.1482769 3.2526,29.3245846 C3.2886,29.3832 3.32644615,29.4427385 3.36383077,29.5018154 C3.43721538,29.6195077 3.51198462,29.7381231 3.5886,29.8567385 C3.63290769,29.9255077 3.67813846,29.9942769 3.72336923,30.0630462 C3.79675385,30.1742769 3.8706,30.2850462 3.94629231,30.3967385 C3.99429231,30.4673538 4.04229231,30.5384308 4.09121538,30.6090462 C4.16967692,30.7225846 4.24952308,30.8361231 4.33075385,30.9501231 C4.36352308,30.9962769 4.39583077,31.0424308 4.42952308,31.0890462 C4.43090769,31.0784308 4.43321538,31.0668923 4.43506154,31.0567385 C4.47936923,30.8024308 4.53013846,30.5255077 4.58736923,30.2268923 M34.2822923,7.72643077 C31.7650615,4.47027692 28.2739846,2.13396923 24.2304462,1.05073846 C20.2155231,-0.0260307692 16.0547538,0.239815385 12.2678308,1.77166154 C16.1562923,2.44504615 19.7918308,4.18643077 22.7692154,6.8292 C26.6022923,6.02058462 30.5844462,6.33950769 34.2822923,7.72643077 M9.34306154,3.26012308 C13.4706,3.41150769 17.4227538,4.86073846 20.6558308,7.39089231 C17.3784462,8.45935385 14.4444462,10.3424308 12.0689077,12.9090462 L12.0564462,12.9039692 L12.0476769,12.9145846 C8.73521538,11.7579692 5.17721538,11.5664308 1.63490769,12.3501231 C3.1326,8.62227692 5.81829231,5.44412308 9.34306154,3.26012308" id="Fill-5" fill="#1E2351" mask="url(#mask-2)"></path>
            </g>
            <path d="M53.0702308,23.9705077 C55.6857692,26.8832769 57.4003846,30.4874308 58.0497692,34.3795846 C61.2288462,26.5818923 58.827,17.5454308 52.2048462,12.3554308 C53.5631538,16.0542 53.8714615,20.0723538 53.0702308,23.9705077 Z M23.3771538,20.0146615 L23.3582308,20.0465077 C23.5026923,19.9948154 23.6536154,19.9422 23.8105385,19.8882 C23.8659231,19.8688154 23.925,19.8489692 23.9817692,19.8295846 C24.1026923,19.7880462 24.2245385,19.7469692 24.3519231,19.7045077 C24.4257692,19.6800462 24.5014615,19.6546615 24.5771538,19.6302 C24.6957692,19.5909692 24.8162308,19.5517385 24.9394615,19.5115846 C25.0206923,19.4857385 25.1019231,19.4598923 25.185,19.4331231 C25.3114615,19.3934308 25.4402308,19.3528154 25.5708462,19.3126615 C25.6553077,19.2863538 25.7388462,19.2600462 25.8246923,19.2342 C25.9682308,19.1908154 26.115,19.1469692 26.2626923,19.1031231 C26.3393077,19.0805077 26.4145385,19.0578923 26.4925385,19.0352769 C26.7196154,18.9688154 26.9508462,18.9028154 27.1876154,18.8372769 C27.2286923,18.8229692 27.2702308,18.8114308 27.3122308,18.8022 C27.7160769,18.6905077 28.1166923,18.5857385 28.515,18.4855846 C28.5639231,18.4731231 28.6137692,18.4588154 28.6622308,18.4468154 C28.6973077,18.4380462 28.7319231,18.4306615 28.767,18.4223538 L28.7697692,18.4214308 C29.1579231,18.3258923 29.5437692,18.2345077 29.9259231,18.1495846 C29.9453077,18.1454308 29.9646923,18.1403538 29.9840769,18.1357385 C29.9854615,18.1357385 29.9873077,18.1352769 29.9891538,18.1348154 C30.0320769,18.1251231 30.0740769,18.1177385 30.1174615,18.1085077 C30.2933077,18.0702 30.4700769,18.0309692 30.6445385,17.9949692 C30.6016154,17.9622 30.5591538,17.9303538 30.5162308,17.8980462 C30.4045385,17.8135846 30.2933077,17.7300462 30.183,17.6483538 C30.1202308,17.6022 30.0583846,17.5565077 29.9965385,17.5108154 C29.8876154,17.4314308 29.7805385,17.3534308 29.6734615,17.2768154 C29.6148462,17.2348154 29.5562308,17.1923538 29.4985385,17.1512769 C29.3836154,17.0695846 29.2705385,16.9906615 29.1574615,16.9126615 C29.1099231,16.8794308 29.0614615,16.8452769 29.0143846,16.8129692 C28.8556154,16.7040462 28.6982308,16.5974308 28.5436154,16.4954308 C28.3137692,16.3435846 28.0797692,16.1991231 27.8434615,16.0592769 C27.7673077,16.0145077 27.6902308,15.9720462 27.6136154,15.9282 C27.4497692,15.8349692 27.285,15.7435846 27.1188462,15.6558923 C27.0302308,15.6088154 26.9406923,15.5635846 26.8511538,15.5183538 C26.6896154,15.4371231 26.5271538,15.3586615 26.3637692,15.2829692 C26.2756154,15.2418923 26.1879231,15.2008154 26.0993077,15.1615846 C26.0568462,15.1431231 26.013,15.1260462 25.9705385,15.1075846 C25.9317692,15.1551231 25.8920769,15.2008154 25.8537692,15.2488154 C25.7840769,15.3360462 25.7153077,15.4246615 25.647,15.5137385 C25.5293077,15.6660462 25.4139231,15.8206615 25.3008462,15.9766615 C25.2348462,16.0671231 25.1693077,16.1575846 25.1051538,16.2494308 C24.987,16.4178923 24.8725385,16.5895846 24.7594615,16.7622 C24.7063846,16.8429692 24.6519231,16.9223538 24.6002308,17.0040462 C24.4382308,17.2588154 24.2808462,17.5168154 24.1299231,17.7794308 C24.0288462,17.9557385 23.9286923,18.1362 23.8299231,18.3189692 C23.799,18.3757385 23.769,18.4343538 23.7380769,18.4920462 C23.6702308,18.6194308 23.6028462,18.7482 23.5359231,18.8783538 C23.5008462,18.9475846 23.4653077,19.0172769 23.4306923,19.0874308 C23.3688462,19.2102 23.3079231,19.3338923 23.247,19.4589692 C23.2114615,19.5323538 23.1759231,19.6062 23.1408462,19.6805077 C23.0803846,19.8074308 23.0208462,19.9366615 22.9617692,20.0663538 C22.9423846,20.1083538 22.923,20.1508154 22.9036154,20.1932769 L23.3771538,20.0146615 Z M37.7166923,8.42773846 C40.1416154,11.0912769 41.787,14.3252769 42.4377692,17.7277385 L42.4502308,17.7300462 L42.4520769,17.7415846 C45.8637692,18.5160462 48.963,20.1157385 51.5277692,22.4211231 C52.1042308,18.3572769 51.3833077,14.2098923 49.449,10.5591231 C45.7917692,8.59573846 41.6942308,7.8582 37.7166923,8.42773846 Z M27.8263846,14.0045077 C27.8240769,14.0031231 27.8213077,14.0017385 27.819,14.0003538 C27.6219231,13.8988154 27.4234615,13.8005077 27.2231538,13.7063538 C29.5613077,11.3502 32.4413077,9.68681538 35.6360769,8.84866154 C38.0845385,11.2394308 39.795,14.2232769 40.5417692,17.3963538 C40.3880769,17.3760462 40.233,17.3598923 40.0783846,17.3428154 C39.8586923,17.3178923 39.6380769,17.2975846 39.4165385,17.2795846 C39.2568462,17.2671231 39.0971538,17.2551231 38.9360769,17.2458923 C38.7971538,17.2380462 38.6582308,17.2306615 38.5188462,17.2260462 C38.2534615,17.2158923 37.9876154,17.2108154 37.7208462,17.2108154 C37.7033077,17.2108154 37.6857692,17.2098923 37.6682308,17.2098923 C37.6543846,17.2098923 37.6400769,17.2098923 37.6262308,17.2098923 C37.2523846,17.2108154 36.8697692,17.2205077 36.4806923,17.2371231 C36.3551538,17.2426615 36.2254615,17.2532769 36.0985385,17.2606615 C35.8317692,17.2758923 35.565,17.2911231 35.2917692,17.3137385 C35.1343846,17.3266615 34.9733077,17.3446615 34.8136154,17.3598923 C34.5648462,17.3838923 34.3165385,17.4083538 34.0631538,17.4383538 C33.8882308,17.4591231 33.7105385,17.4840462 33.5333077,17.5080462 C33.3583846,17.5311231 33.1857692,17.5505077 33.009,17.5768154 C32.9900769,17.5615846 32.9720769,17.5477385 32.9531538,17.5329692 C32.6845385,17.3160462 32.4186923,17.1060462 32.1565385,16.9025077 C32.1140769,16.8688154 32.0716154,16.8360462 32.0291538,16.8032769 C31.7665385,16.6006615 31.5071538,16.4035846 31.2519231,16.2148154 C31.2159231,16.1880462 31.1799231,16.1617385 31.1439231,16.1349692 C30.8836154,15.9429692 30.6265385,15.7574308 30.375,15.5806615 C30.3514615,15.5640462 30.3283846,15.5483538 30.3048462,15.5317385 C30.0417692,15.3475846 29.7823846,15.1703538 29.5294615,15.0032769 C29.2834615,14.8408154 29.0328462,14.6866615 28.7803846,14.5366615 C28.7166923,14.4992769 28.6534615,14.4618923 28.5897692,14.4249692 C28.3382308,14.2791231 28.0839231,14.1378923 27.8263846,14.0045077 Z" id="Fill-8" fill="#99AFDA"></path>
            <path d="M19.7709692,41.0381538 C19.9463538,41.0570769 20.1217385,41.0750769 20.2985077,41.0893846 C20.3746615,41.0958462 20.4508154,41.1004615 20.5265077,41.1055385 C21.0189692,41.1401538 21.5151231,41.16 22.0158923,41.1632308 C22.3435846,41.1627692 22.6809692,41.1530769 23.0229692,41.1387692 C23.0825077,41.1364615 23.1420462,41.1346154 23.2020462,41.1318462 C23.5325077,41.1156923 23.8689692,41.0935385 24.2118923,41.0653846 C24.2783538,41.0598462 24.3457385,41.0538462 24.4126615,41.0478462 C24.5202,41.0381538 24.6314308,41.0243077 24.7403538,41.0136923 C24.6605077,40.9467692 24.5760462,40.8747692 24.4915846,40.8027692 C24.4588154,40.7750769 24.4288154,40.7496923 24.3955846,40.7215385 C24.2612769,40.6066154 24.1218923,40.4861538 23.9778923,40.3610769 C23.9317385,40.3209231 23.8832769,40.278 23.8362,40.2369231 C23.7342,40.1473846 23.6312769,40.0569231 23.5246615,39.9623077 C23.4646615,39.9092308 23.4037385,39.8543077 23.3423538,39.7993846 C23.2435846,39.7112308 23.1443538,39.6216923 23.0423538,39.5293846 C22.9772769,39.4703077 22.9117385,39.4107692 22.8452769,39.3498462 C22.7418923,39.2556923 22.6375846,39.1592308 22.5323538,39.0613846 C22.4654308,38.9995385 22.3989692,38.9381538 22.3315846,38.8749231 C22.2171231,38.7678462 22.1012769,38.658 21.9845077,38.5472308 C21.9245077,38.49 21.8649692,38.4336923 21.8040462,38.3755385 C21.6268154,38.2052308 21.4477385,38.0316923 21.2663538,37.8535385 C20.9728154,37.5641538 20.6871231,37.2733846 20.4051231,36.9816923 C20.3446615,36.9198462 20.2846615,36.8575385 20.2251231,36.7956923 C19.9528154,36.5113846 19.6851231,36.2266154 19.4243538,35.9418462 C19.3791231,35.8924615 19.3357385,35.8430769 19.2909692,35.7936923 C19.1751231,35.6663077 19.0583538,35.5384615 18.9448154,35.4110769 C18.9378923,35.4673846 18.9309692,35.5232308 18.9245077,35.5790769 C18.9069692,35.7156923 18.8908154,35.8518462 18.8751231,35.9861538 C18.8663538,36.0650769 18.8575846,36.1430769 18.8488154,36.2206154 C18.8345077,36.3526154 18.8206615,36.4827692 18.8082,36.6115385 C18.8008154,36.6853846 18.7934308,36.7592308 18.7865077,36.8321538 C18.7735846,36.9687692 18.7620462,37.1026154 18.7509692,37.236 C18.7458923,37.2964615 18.7403538,37.3578462 18.7357385,37.4178462 C18.7209692,37.608 18.7075846,37.7958462 18.6965077,37.9790769 C18.6798923,38.256 18.6720462,38.5329231 18.6688154,38.8084615 C18.6678923,38.8975385 18.6702,38.9856923 18.6706615,39.0747692 C18.6715846,39.2635385 18.6748154,39.4518462 18.6817385,39.6396923 C18.6854308,39.7398462 18.6909692,39.8404615 18.6969692,39.9406154 C18.7071231,40.1196923 18.7205077,40.2983077 18.7366615,40.476 C18.7454308,40.5738462 18.7537385,40.6712308 18.7643538,40.7681538 C18.7694308,40.8133846 18.7763538,40.8576923 18.7818923,40.9029231 C18.8377385,40.9121538 18.8926615,40.9227692 18.9485077,40.9315385 C19.0735846,40.9504615 19.1991231,40.9675385 19.3251231,40.9841538 C19.4728154,41.004 19.6218923,41.0215385 19.7709692,41.0381538 M16.8817385,38.7590769 C16.8854308,38.4641538 16.8937385,38.1683077 16.9112769,37.872 C16.9214308,37.7058462 16.9329692,37.5364615 16.9458923,37.3647692 C16.9500462,37.3075385 16.9551231,37.2489231 16.9602,37.1912308 C16.9694308,37.0749231 16.9786615,36.9586154 16.9892769,36.84 C16.9957385,36.7693846 17.0026615,36.6969231 17.0095846,36.6253846 C17.0202,36.5178462 17.0303538,36.4098462 17.0414308,36.3 C17.0497385,36.2215385 17.0585077,36.1416923 17.0672769,36.0623077 C17.0788154,35.9566154 17.0903538,35.8504615 17.1028154,35.7429231 C17.1125077,35.6593846 17.1226615,35.5749231 17.1332769,35.49 C17.1462,35.3847692 17.1586615,35.2790769 17.1725077,35.1724615 C17.1840462,35.0843077 17.1955846,34.9952308 17.2075846,34.9056923 C17.2218923,34.7990769 17.2362,34.692 17.2514308,34.584 C17.2638923,34.4930769 17.2772769,34.4016923 17.2902,34.3093846 C17.3058923,34.2013846 17.3220462,34.0929231 17.3386615,33.9835385 C17.3529692,33.8884615 17.3672769,33.7933846 17.3820462,33.6978462 C17.3885077,33.6558462 17.3945077,33.6152308 17.4009692,33.5736923 C17.3857385,33.5538462 17.3714308,33.534 17.3557385,33.5146154 C17.1351231,33.2344615 16.9209692,32.9552308 16.7132769,32.676 C16.6791231,32.6307692 16.6458923,32.5855385 16.6122,32.5398462 C16.4054308,32.2592308 16.2051231,31.9795385 16.0126615,31.7007692 C15.9849692,31.6606154 15.9577385,31.62 15.9300462,31.5798462 C15.7348154,31.2946154 15.5460462,31.0103077 15.3660462,30.7273846 C15.3485077,30.7001538 15.3318923,30.6729231 15.3148154,30.6456923 C15.1269692,30.3489231 14.9465077,30.0535385 14.7762,29.7595385 C14.6160462,29.484 14.4646615,29.2043077 14.3174308,28.9232308 C14.2786615,28.8493846 14.2408154,28.7755385 14.2029692,28.7012308 C14.0746615,28.4501538 13.9514308,28.1976923 13.8337385,27.9429231 C13.8175846,27.9087692 13.8005077,27.8746154 13.7848154,27.8404615 C13.6786615,27.6078462 13.5766615,27.3738462 13.4792769,27.1389231 C11.1028154,29.3741538 9.37296923,32.3478462 8.52835385,35.6635385 C10.8549692,38.0109231 13.7349692,39.6724615 16.9408154,40.5175385 C16.8983538,40.0098462 16.8798923,39.4970769 16.8803538,38.9815385 C16.8803538,38.9446154 16.8775846,38.9076923 16.8780462,38.8707692 C16.8785077,38.8338462 16.8812769,38.7964615 16.8817385,38.7590769 M12.8178923,25.332 L12.8132769,25.3190769 L12.8229692,25.3112308 C11.7891231,21.9706154 11.6252769,18.4878462 12.3374308,15.1144615 C8.52973846,16.65 5.29804615,19.3481538 3.10343077,22.8452308 C3.23081538,26.9875385 4.64081538,30.9073846 7.12343077,34.0716923 C8.21635385,30.6406154 10.1945077,27.5986154 12.8178923,25.332 M3.28204615,19.5636923 C4.46404615,11.232 11.0889692,4.63292308 19.4322,3.48738462 C16.3883538,5.99446154 14.1245077,9.28107692 12.9069692,13.0029231 C9.13343077,14.2606154 5.81035385,16.5350769 3.28204615,19.5636923" id="Fill-10" fill="#273778"></path>
            <path d="M46.8302308,34.827 L46.8343846,34.8399231 L46.8251538,34.8477692 C47.859,38.1893077 48.0223846,41.673 47.3088462,45.0473077 C51.1179231,43.5113077 54.3496154,40.8136154 56.5442308,37.3160769 C56.4173077,33.1719231 55.0063846,29.2525385 52.5223846,26.091 C51.429,29.5206923 49.4517692,32.5613077 46.8302308,34.827 M40.6645385,19.2228462 C40.5736154,19.2094615 40.4826923,19.1974615 40.3913077,19.185 C40.1753077,19.1554615 39.9579231,19.1300769 39.7391538,19.1079231 C39.6514615,19.0991538 39.5642308,19.0899231 39.4760769,19.0820769 C39.249,19.0622308 39.0200769,19.047 38.7906923,19.0340769 C38.7099231,19.0299231 38.6300769,19.0239231 38.5497692,19.0202308 C38.2437692,19.0068462 37.9368462,18.999 37.6294615,18.9985385 C37.3003846,18.999 36.9625385,19.0082308 36.6196154,19.0225385 C36.5596154,19.0248462 36.5000769,19.0271538 36.4396154,19.0299231 C36.1091538,19.0460769 35.7726923,19.0682308 35.4306923,19.0963846 C35.3637692,19.1019231 35.2959231,19.1083846 35.2285385,19.1143846 C35.1293077,19.1231538 35.0273077,19.1360769 34.9271538,19.1457692 L35.2557692,19.4148462 L35.2220769,19.4148462 C35.2294615,19.4213077 35.2368462,19.4277692 35.2442308,19.4337692 C35.3785385,19.5486923 35.5188462,19.6696154 35.6637692,19.7956154 C35.7053077,19.8316154 35.7491538,19.8703846 35.7916154,19.9077692 C35.8977692,20.0005385 36.0053077,20.0946923 36.1165385,20.193 C36.1751538,20.2451538 36.2346923,20.2986923 36.2946923,20.3522308 C36.3943846,20.4417692 36.495,20.5322308 36.5983846,20.6254615 C36.663,20.6840769 36.7280769,20.7436154 36.7940769,20.8040769 C36.8983846,20.8991538 37.0036154,20.9965385 37.1106923,21.0953077 C37.1766923,21.1566923 37.2422308,21.2176154 37.3091538,21.2799231 C37.4254615,21.3888462 37.5431538,21.5000769 37.6617692,21.6131538 C37.7083846,21.6574615 37.7536154,21.6994615 37.8006923,21.7442308 C37.8131538,21.7566923 37.8265385,21.7696154 37.8394615,21.7816154 C38.0153077,21.9505385 38.193,22.1231538 38.373,22.2999231 L38.3822308,22.3086923 C38.3868462,22.3133077 38.3905385,22.3174615 38.3951538,22.3220769 C38.685,22.6077692 38.9674615,22.8953077 39.2462308,23.1828462 C39.3057692,23.2446923 39.3657692,23.3065385 39.4248462,23.3679231 C39.6980769,23.6531538 39.9657692,23.9383846 40.227,24.2240769 C40.2722308,24.2734615 40.3156154,24.3228462 40.3603846,24.3717692 C40.4743846,24.4977692 40.5893077,24.6233077 40.701,24.7488462 C40.7079231,24.6925385 40.7148462,24.6376154 40.7217692,24.5822308 C40.7383846,24.4451538 40.755,24.3094615 40.7702308,24.1756154 C40.7799231,24.0916154 40.7891538,24.009 40.7979231,23.9259231 C40.8113077,23.8008462 40.8242308,23.6776154 40.8366923,23.5553077 C40.8445385,23.475 40.8528462,23.3946923 40.8597692,23.3157692 C40.8722308,23.1874615 40.8828462,23.0614615 40.8934615,22.9368462 C40.899,22.8694615 40.905,22.8006923 40.9100769,22.7342308 C40.9248462,22.5459231 40.9377692,22.3603846 40.9488462,22.1799231 C40.9654615,21.9025385 40.9733077,21.6260769 40.9760769,21.3500769 C40.9774615,21.2614615 40.9751538,21.1733077 40.9746923,21.0851538 C40.9742308,20.8954615 40.971,20.7066923 40.9636154,20.5188462 C40.9594615,20.4186923 40.9543846,20.319 40.9483846,20.2197692 C40.9382308,20.0388462 40.9248462,19.8588462 40.9082308,19.6797692 C40.8999231,19.5842308 40.8916154,19.4886923 40.8814615,19.3936154 C40.8763846,19.3474615 40.869,19.3026923 40.8634615,19.257 C40.797,19.2463846 40.7314615,19.233 40.6645385,19.2228462 M42.765,21.1774615 C42.765,21.2143846 42.7673077,21.2508462 42.7673077,21.2882308 C42.7668462,21.3251538 42.7640769,21.3625385 42.7631538,21.3999231 C42.7599231,21.6948462 42.7516154,21.9906923 42.7340769,22.287 C42.7340769,22.2911538 42.7336154,22.2957692 42.7331538,22.2999231 C42.7234615,22.4614615 42.7123846,22.6257692 42.6994615,22.7933077 C42.6957692,22.8436154 42.6911538,22.8953077 42.687,22.9465385 C42.6773077,23.0688462 42.6676154,23.1920769 42.6565385,23.3176154 C42.6505385,23.3808462 42.6440769,23.4454615 42.6380769,23.5096154 C42.627,23.625 42.6163846,23.7408462 42.6039231,23.8585385 C42.5965385,23.9305385 42.5886923,24.0039231 42.5803846,24.0763846 C42.5683846,24.1885385 42.5563846,24.3006923 42.543,24.4146923 C42.5337692,24.4940769 42.5240769,24.5743846 42.5143846,24.6542308 C42.5014615,24.7645385 42.4876154,24.8748462 42.4737692,24.9865385 C42.4626923,25.0719231 42.4516154,25.1582308 42.4400769,25.2445385 C42.4257692,25.3539231 42.4105385,25.4637692 42.3953077,25.5745385 C42.3828462,25.6640769 42.3699231,25.7540769 42.3574615,25.845 C42.3413077,25.9553077 42.3251538,26.0665385 42.3085385,26.1782308 C42.2942308,26.2723846 42.2803846,26.3665385 42.2656154,26.4616154 C42.2591538,26.5045385 42.2531538,26.5465385 42.2462308,26.5899231 C42.2743846,26.625 42.3011538,26.661 42.3293077,26.6960769 C42.3906923,26.7740769 42.4511538,26.8520769 42.5116154,26.9300769 C42.5817692,27.0205385 42.6519231,27.1119231 42.7206923,27.2023846 C42.7788462,27.279 42.8360769,27.3551538 42.8933077,27.4313077 C42.9625385,27.5236154 43.0308462,27.6159231 43.0982308,27.7082308 C43.1526923,27.783 43.2071538,27.8573077 43.2606923,27.9316154 C43.3285385,28.0257692 43.395,28.1194615 43.4614615,28.2131538 C43.5126923,28.2860769 43.5639231,28.3585385 43.6142308,28.4314615 C43.6802308,28.5265385 43.7448462,28.6216154 43.809,28.7166923 C43.8574615,28.7873077 43.9059231,28.8583846 43.953,28.929 C44.0185385,29.0282308 44.0822308,29.1265385 44.1463846,29.2248462 C44.1893077,29.2908462 44.2326923,29.3568462 44.2746923,29.4228462 C44.3443846,29.5322308 44.4117692,29.6411538 44.4791538,29.7500769 C44.5128462,29.8045385 44.5483846,29.8594615 44.5811538,29.9139231 C44.6808462,30.0773077 44.7777692,30.2397692 44.8719231,30.4017692 C45.0320769,30.6768462 45.183,30.9556154 45.3302308,31.2362308 C45.369,31.3100769 45.4073077,31.3843846 45.4451538,31.4586923 C45.5725385,31.7079231 45.6953077,31.959 45.8125385,32.2119231 C45.8291538,32.2479231 45.8471538,32.283 45.8633077,32.319 C45.9694615,32.5520769 46.0719231,32.7865385 46.1697692,33.0219231 C48.5711538,30.777 50.2654615,27.8596154 51.1174615,24.5000769 C48.7940769,22.1522308 45.9140769,20.4897692 42.7045385,19.6419231 C42.7225385,19.8579231 42.7363846,20.0748462 42.7465385,20.2922308 C42.747,20.2936154 42.747,20.2954615 42.747,20.2968462 C42.7608462,20.589 42.765,20.883 42.765,21.1774615 M56.3651538,40.5980769 C55.1822308,48.9306923 48.555,55.5306923 40.2099231,56.6743846 C43.2579231,54.1668462 45.5231538,50.8802308 46.7388462,47.1583846 C50.5133077,45.9011538 53.8368462,43.6266923 56.3651538,40.5980769" id="Fill-12" fill="#6886C2"></path>
        </g>
    </g>
</svg>