<?xml version="1.0" encoding="UTF-8"?>
<svg width="256px" height="105px" viewBox="0 0 256 105" version="1.1" xmlns="http://www.w3.org/2000/svg" xmlns:xlink="http://www.w3.org/1999/xlink">
    <title>ERP</title>
    <g id="Page-1" stroke="none" stroke-width="1" fill="none" fill-rule="evenodd">
        <g id="ERP" transform="translate(0.112000, 0.000000)">
            <rect id="Rectangle" fill="#483D8B" x="158.888" y="0" width="97" height="105" rx="5"></rect>
            <g id="/1" transform="translate(168.184000, 22.120000)" fill="#FFFFFF" fill-rule="nonzero">
                <polygon id="Path" points="26.064 0.432 -5.68434189e-14 68.616 8.856 68.616 34.848 0.432"></polygon>
                <path d="M68.4,57.744 C67.968,54.792 67.824,52.2 67.824,48.384 L67.824,11.952 C67.824,7.632 67.968,4.32 68.4,0.072 C65.808,0.36 64.728,0.432 61.056,0.432 L54.432,0.432 C51.048,0.432 49.464,0.36 47.232,0 L47.232,9.144 C49.896,8.856 51.984,8.712 54.648,8.712 L58.104,8.712 L58.104,48.384 C58.104,52.128 57.96,54.936 57.528,57.744 L68.4,57.744 Z" id="Path"></path>
            </g>
            <g transform="translate(0.000000, 23.048000)" fill="#483D8B" fill-rule="nonzero">
                <path d="M40.896,48.744 C37.8,49.104 35.712,49.248 31.68,49.248 L10.08,49.248 L10.08,32.256 L27.648,32.256 C32.112,32.256 34.056,32.328 37.008,32.76 L37.008,23.328 C33.84,23.688 31.392,23.832 27.648,23.832 L10.152,23.832 L10.152,9 L30.888,9 C35.136,9 37.44,9.144 40.176,9.504 L40.176,0 C36.864,0.36 34.488,0.504 30.888,0.504 L9.144,0.504 C4.752,0.504 2.88,0.432 0,0.288 C0.432,3.672 0.576,5.832 0.576,9.576 L0.576,48.528 C0.576,52.776 0.432,55.152 0,58.032 C2.88,57.888 4.824,57.816 9.144,57.816 L31.608,57.816 C36,57.816 38.304,57.96 40.896,58.32 L40.896,48.744 Z" id="Path"></path>
                <path d="M97.776,57.816 C96.768,55.872 94.968,51.984 94.392,50.688 C87.264,33.84 85.896,31.824 81.36,30.384 C85.464,29.232 87.336,28.296 89.352,26.208 C91.8,23.688 93.024,20.088 93.024,15.48 C93.024,5.976 86.76,0.504 75.816,0.504 L58.536,0.504 C54.576,0.504 52.344,0.432 49.32,0.288 C49.752,3.672 49.896,5.832 49.896,9.648 L49.896,48.456 C49.896,52.848 49.752,54.792 49.32,57.816 L60.048,57.816 C59.616,55.008 59.472,52.704 59.472,48.384 L59.472,33.696 L70.2,33.696 C75.744,33.696 78.264,36.36 82.152,46.296 C84.528,52.416 85.752,56.088 85.896,57.816 L97.776,57.816 Z M59.472,25.488 L59.472,8.712 L74.232,8.712 C80.136,8.712 83.088,11.376 83.088,16.56 C83.088,19.296 82.296,21.384 80.784,22.896 C79.128,24.552 76.608,25.488 73.944,25.488 L59.472,25.488 Z" id="Shape"></path>
                <path d="M115.632,57.816 C115.2,55.08 115.056,52.344 115.056,48.456 L115.056,36.432 L128.808,36.432 C135.72,36.432 140.616,34.776 144.144,31.248 C147.312,27.936 148.968,23.472 148.968,18 C148.968,12.816 147.456,8.496 144.504,5.616 C141.048,2.16 136.152,0.504 129.168,0.504 L114.12,0.504 C110.304,0.504 108.072,0.432 104.976,0.288 C105.408,3.528 105.552,6.12 105.552,9.576 L105.552,48.528 C105.552,52.416 105.408,54.936 104.976,57.816 L115.632,57.816 Z M115.056,28.152 L115.056,8.784 L128.808,8.784 C132.624,8.784 135,9.576 136.656,11.376 C138.24,13.032 139.032,15.408 139.032,18.288 C139.032,24.624 135.432,28.152 128.808,28.152 L115.056,28.152 Z" id="Shape"></path>
            </g>
        </g>
    </g>
</svg>